<?xml version="1.0" encoding="utf-8" ?>
<svg xmlns="http://www.w3.org/2000/svg" xmlns:xlink="http://www.w3.org/1999/xlink" width="1024" height="1024">
	<path fill="#855AFA" transform="scale(2 2)" d="M259.977 89.0485L256.494 86.4245L87.7634 206.159L114.635 224.322C139.072 243.35 116.719 285.738 85.4559 273.373C78.6633 270.687 73.2101 265.78 67.2151 261.757C59.5482 256.611 51.4715 251.796 44.2813 245.998C22.0809 228.097 19.6016 190.909 37.4742 169.223C42.3025 163.364 48.6205 159.334 54.7209 154.948L200.799 49.8628C216.423 38.3403 230.959 24.8655 251.133 22.8482L261.814 22.9266C279.873 24.6777 293.291 35.8938 307.203 46.3912L451.489 150.313C459.672 156.197 469.253 161.854 475.672 169.77C493.228 191.419 489.039 228.817 467.287 246.125C461.058 251.081 454.077 255.257 447.5 259.742C440.909 264.236 434.318 270.22 426.876 273.171C406.489 281.255 383.844 264.895 386.651 243.004L387.359 238.942C390.504 226.419 412.7 212.834 423.901 206.161C423.311 205.472 422.038 204.908 421.263 204.357L259.977 89.0485Z"/>
	<path fill="#855AFA" transform="scale(2 2)" d="M258.062 486.523L244.842 486.519C241.356 486.512 235.978 487.129 232.855 485.574C222.907 480.618 224.641 474.715 224.628 465.321L224.676 363.223C223.367 361.873 214.056 356.089 211.723 354.518L170.939 327.412C147.412 312.389 149.255 306.042 149.268 281.657L149.273 222.75C148.98 195.523 151.231 195.567 171.665 181.161L224.851 144.478C234.18 137.872 242.179 131.758 254.004 130.854C267.598 130.185 276.88 137.556 287.501 144.842L338.951 180.438C358.871 194.154 362.613 194.26 362.567 218.55L362.528 292.757C362.519 313.414 355.958 318.041 340.172 328.099L294.404 359.011C288.61 362.951 287.258 361.048 287.259 366.871L287.26 467.227C287.254 480.263 287.274 486.485 270.562 486.526L258.062 486.523ZM252.219 205.103C239.5 206.201 227.407 211.789 219.125 221.647C190.347 255.905 215.864 304.092 259.062 301.882C271.715 300.998 284.605 295.336 293.046 285.687C321.369 253.313 295.989 202.34 252.755 205.032L252.219 205.103Z"/>
</svg>
