<?xml version="1.0" encoding="utf-8"?>
<!-- Generator: Adobe Illustrator 27.7.0, SVG Export Plug-In . SVG Version: 6.00 Build 0)  -->
<svg version="1.1" id="Layer_1" xmlns="http://www.w3.org/2000/svg" xmlns:xlink="http://www.w3.org/1999/xlink" x="0px" y="0px"
	 viewBox="0 0 1024 1024" style="enable-background:new 0 0 1024 1024;" xml:space="preserve">
<style type="text/css">
	.st0{fill:#855AFA;}
	.st1{font-family:'MyriadPro-Regular';}
	.st2{font-size:208.3198px;}
</style>
<path class="st0" d="M247.4,402.4l-3.1-2.8l-151.7,129l24.2,19.6c22,20.5,1.9,66.2-26.2,52.8c-6.1-2.9-11-8.2-16.4-12.5
	c-6.9-5.5-14.2-10.7-20.6-17c-20-19.3-22.2-59.4-6.1-82.7c4.3-6.3,10-10.7,15.5-15.4l131.4-113.2c14-12.4,27.1-26.9,45.3-29.1
	l9.6,0.1c16.2,1.9,28.3,14,40.8,25.3l129.7,112c7.4,6.3,16,12.4,21.7,21c15.8,23.3,12,63.6-7.5,82.3c-5.6,5.3-11.9,9.8-17.8,14.7
	c-5.9,4.8-11.9,11.3-18.5,14.5c-18.3,8.7-38.7-8.9-36.2-32.5l0.6-4.4c2.8-13.5,22.8-28.1,32.9-35.3c-0.5-0.7-1.7-1.3-2.4-1.9
	L247.4,402.4z"/>
<path class="st0" d="M245.6,830.6l-11.9,0c-3.1,0-8,0.7-10.8-1c-8.9-5.3-7.4-11.7-7.4-21.8l0-110c-1.2-1.5-9.5-7.7-11.6-9.4
	l-36.7-29.2c-21.2-16.2-19.5-23-19.5-49.3l0-63.5c-0.3-29.3,1.8-29.3,20.1-44.8l47.8-39.5c8.4-7.1,15.6-13.7,26.2-14.7
	c12.2-0.7,20.6,7.2,30.1,15.1l46.3,38.4c17.9,14.8,21.3,14.9,21.2,41.1l0,80c0,22.3-5.9,27.2-20.1,38.1l-41.2,33.3
	c-5.2,4.2-6.4,2.2-6.4,8.5l0,108.1c0,14,0,20.7-15,20.8L245.6,830.6z M240.4,527.4c-11.4,1.2-22.3,7.2-29.8,17.8
	c-25.9,36.9-2.9,88.8,35.9,86.4c11.4-1,23-7.1,30.6-17.4c25.5-34.9,2.6-89.8-36.2-86.9L240.4,527.4z"/>
<g>
	<text transform="matrix(0.9647 0 0 1 34.4849 828.5869)" class="st0 st1 st2">M  ndScribe</text>
</g>
</svg>
